<svg width="19" height="23" viewBox="0 0 19 23" fill="none" xmlns="http://www.w3.org/2000/svg">
<mask id="path-1-outside-1_68_43" maskUnits="userSpaceOnUse" x="-0.000976562" y="0" width="19" height="23" fill="black">
<rect fill="white" x="-0.000976562" width="19" height="23"/>
<path fill-rule="evenodd" clip-rule="evenodd" d="M6.09658 12.9176L5.14941 11.4387C4.50266 10.4288 3.12506 10.0604 2.07132 10.614L2.31685 10.485C2.05534 10.6224 1.92995 10.9649 2.03762 11.2496L3.34873 14.7162C3.55658 15.2658 4.08742 16.043 4.5273 16.4335C4.5273 16.4335 7.1649 18.6645 7.1649 19.501V20.56H11.4381L12.5065 18.3765L13.5748 20.56H14.6431V19.501C14.6431 18.6645 16.255 16.0299 16.255 16.0299C16.5517 15.5178 16.799 14.6156 16.799 14.0166V9.61157C16.7797 8.63629 15.9685 7.8459 14.9675 7.8459C14.4668 7.8459 14.0612 8.24109 14.0612 8.729V9.08181C14.0612 8.10654 13.25 7.31614 12.249 7.31614C11.7483 7.31614 11.3427 7.71134 11.3427 8.19924V8.55206C11.3427 7.57678 10.5315 6.78639 9.53051 6.78639C9.02975 6.78639 8.62415 7.18158 8.62415 7.66949V8.0223C8.62415 7.86557 8.60776 7.74097 8.57609 7.64223L8.29963 3.09309C8.26225 2.47793 7.75491 2 7.1649 2C6.57077 2 6.09658 2.48871 6.09658 3.09155V7.45882V12.9176ZM13.595 11.8259L14.6633 11.8259V16.1929H13.595V11.8259V11.8259ZM11.4604 11.8259L12.5288 11.8259V16.1929H11.4604V11.8259V11.8259ZM9.32275 11.8259L10.3911 11.8259V16.1929H9.32275V11.8259V11.8259Z"/>
</mask>
<path fill-rule="evenodd" clip-rule="evenodd" d="M6.09658 12.9176L5.14941 11.4387C4.50266 10.4288 3.12506 10.0604 2.07132 10.614L2.31685 10.485C2.05534 10.6224 1.92995 10.9649 2.03762 11.2496L3.34873 14.7162C3.55658 15.2658 4.08742 16.043 4.5273 16.4335C4.5273 16.4335 7.1649 18.6645 7.1649 19.501V20.56H11.4381L12.5065 18.3765L13.5748 20.56H14.6431V19.501C14.6431 18.6645 16.255 16.0299 16.255 16.0299C16.5517 15.5178 16.799 14.6156 16.799 14.0166V9.61157C16.7797 8.63629 15.9685 7.8459 14.9675 7.8459C14.4668 7.8459 14.0612 8.24109 14.0612 8.729V9.08181C14.0612 8.10654 13.25 7.31614 12.249 7.31614C11.7483 7.31614 11.3427 7.71134 11.3427 8.19924V8.55206C11.3427 7.57678 10.5315 6.78639 9.53051 6.78639C9.02975 6.78639 8.62415 7.18158 8.62415 7.66949V8.0223C8.62415 7.86557 8.60776 7.74097 8.57609 7.64223L8.29963 3.09309C8.26225 2.47793 7.75491 2 7.1649 2C6.57077 2 6.09658 2.48871 6.09658 3.09155V7.45882V12.9176ZM13.595 11.8259L14.6633 11.8259V16.1929H13.595V11.8259V11.8259ZM11.4604 11.8259L12.5288 11.8259V16.1929H11.4604V11.8259V11.8259ZM9.32275 11.8259L10.3911 11.8259V16.1929H9.32275V11.8259V11.8259Z" fill="white"/>
<path d="M6.09658 12.9176L4.41237 13.9963L8.09658 19.749V12.9176H6.09658ZM5.14941 11.4387L6.83362 10.36V10.36L5.14941 11.4387ZM2.03762 11.2496L0.166941 11.9571H0.166941L2.03762 11.2496ZM3.34873 14.7162L5.21941 14.0087V14.0087L3.34873 14.7162ZM4.5273 16.4335L3.19965 17.9292L3.21747 17.9451L3.23567 17.9605L4.5273 16.4335ZM7.1649 20.56H5.1649V22.56H7.1649V20.56ZM11.4381 20.56V22.56H12.6862L13.2346 21.439L11.4381 20.56ZM12.5065 18.3765L14.303 17.4975L12.5065 13.8256L10.7099 17.4975L12.5065 18.3765ZM13.5748 20.56L11.7783 21.439L12.3267 22.56H13.5748V20.56ZM14.6431 20.56V22.56H16.6431V20.56H14.6431ZM16.255 16.0299L17.961 17.0737L17.9735 17.0533L17.9855 17.0326L16.255 16.0299ZM16.799 9.61157H18.799V9.59175L18.7986 9.57194L16.799 9.61157ZM8.57609 7.64223L6.57977 7.76355L6.595 8.01408L6.67166 8.25308L8.57609 7.64223ZM8.29963 3.09309L6.30332 3.21441V3.21441L8.29963 3.09309ZM6.09658 3.09155H4.09658H6.09658ZM14.6633 11.8259H16.6633V9.82588H14.6633L14.6633 11.8259ZM14.6633 16.1929V18.1929H16.6633V16.1929H14.6633ZM13.595 16.1929H11.595V18.1929H13.595V16.1929ZM13.595 11.8259M12.5288 11.8259H14.5288V9.82588H12.5288L12.5288 11.8259ZM12.5288 16.1929V18.1929H14.5288V16.1929H12.5288ZM11.4604 16.1929H9.46045V18.1929H11.4604V16.1929ZM11.4604 11.8259M10.3911 11.8259H12.3911V9.82588H10.3911L10.3911 11.8259ZM10.3911 16.1929V18.1929H12.3911V16.1929H10.3911ZM9.32275 16.1929H7.32275V18.1929H9.32275V16.1929ZM9.32275 11.8259M6.09658 12.9176L7.7808 11.839L6.83362 10.36L5.14941 11.4387L3.46519 12.5173L4.41237 13.9963L6.09658 12.9176ZM5.14941 11.4387L6.83362 10.36C5.63274 8.48491 3.12317 7.80213 1.14112 8.84347L2.07132 10.614L3.00152 12.3845C3.04467 12.3618 3.13046 12.3411 3.24567 12.372C3.36072 12.4028 3.43223 12.4658 3.46519 12.5173L5.14941 11.4387ZM2.07132 10.614L3.00152 12.3845L3.24705 12.2555L2.31685 10.485L1.38665 8.71447L1.14112 8.84347L2.07132 10.614ZM2.31685 10.485L1.38665 8.71447C0.19213 9.34205 -0.282478 10.7688 0.166941 11.9571L2.03762 11.2496L3.9083 10.5421C4.03898 10.8876 4.0164 11.2274 3.91727 11.4986C3.81852 11.7688 3.60778 12.066 3.24705 12.2555L2.31685 10.485ZM2.03762 11.2496L0.166941 11.9571L1.47805 15.4237L3.34873 14.7162L5.21941 14.0087L3.9083 10.5421L2.03762 11.2496ZM3.34873 14.7162L1.47805 15.4237C1.79804 16.2698 2.51262 17.3194 3.19965 17.9292L4.5273 16.4335L5.85495 14.9377C5.66222 14.7666 5.31511 14.2618 5.21941 14.0087L3.34873 14.7162ZM4.5273 16.4335C3.23567 17.9605 3.23554 17.9604 3.23542 17.9603C3.2354 17.9602 3.23529 17.9601 3.23524 17.9601C3.23513 17.96 3.23507 17.9599 3.23504 17.9599C3.23499 17.9599 3.23509 17.96 3.23534 17.9602C3.23586 17.9606 3.23698 17.9616 3.2387 17.963C3.24214 17.966 3.24794 17.9709 3.25595 17.9778C3.27199 17.9915 3.29682 18.0129 3.32917 18.041C3.39399 18.0973 3.48844 18.1801 3.60254 18.2827C3.83275 18.4896 4.13349 18.7681 4.42876 19.0646C4.73264 19.3699 4.99002 19.6538 5.15789 19.8756C5.24271 19.9877 5.27137 20.0406 5.27082 20.0395C5.26932 20.0366 5.24804 19.9953 5.22503 19.9212C5.20324 19.8509 5.1649 19.7034 5.1649 19.501H7.1649H9.1649C9.1649 18.927 8.95741 18.4633 8.8323 18.2186C8.68751 17.9354 8.5101 17.6767 8.34765 17.462C8.02097 17.0303 7.61896 16.5996 7.26344 16.2425C6.89931 15.8767 6.54065 15.5452 6.27631 15.3076C6.14313 15.1879 6.03153 15.09 5.9521 15.021C5.91233 14.9864 5.88049 14.9591 5.85789 14.9397C5.84659 14.93 5.83758 14.9223 5.83104 14.9168C5.82776 14.914 5.82511 14.9117 5.82308 14.91C5.82207 14.9091 5.82122 14.9084 5.82053 14.9078C5.82018 14.9075 5.81987 14.9073 5.81961 14.9071C5.81948 14.9069 5.81931 14.9068 5.81924 14.9067C5.81908 14.9066 5.81893 14.9065 4.5273 16.4335ZM7.1649 19.501H5.1649V20.56H7.1649H9.1649V19.501H7.1649ZM7.1649 20.56V22.56H11.4381V20.56V18.56H7.1649V20.56ZM11.4381 20.56L13.2346 21.439L14.303 19.2554L12.5065 18.3765L10.7099 17.4975L9.64163 19.681L11.4381 20.56ZM12.5065 18.3765L10.7099 19.2554L11.7783 21.439L13.5748 20.56L15.3713 19.681L14.303 17.4975L12.5065 18.3765ZM13.5748 20.56V22.56H14.6431V20.56V18.56H13.5748V20.56ZM14.6431 20.56H16.6431V19.501H14.6431H12.6431V20.56H14.6431ZM14.6431 19.501H16.6431C16.6431 19.6734 16.6094 19.7509 16.6333 19.6684C16.6499 19.6112 16.6838 19.5132 16.7425 19.3715C16.8598 19.0885 17.0293 18.7423 17.2176 18.3856C17.4027 18.0352 17.59 17.7045 17.7324 17.4595C17.8031 17.3377 17.8617 17.2389 17.902 17.1715C17.9222 17.1379 17.9377 17.1122 17.9478 17.0955C17.9528 17.0872 17.9565 17.0811 17.9588 17.0774C17.9599 17.0756 17.9606 17.0743 17.961 17.0737C17.9612 17.0734 17.9613 17.0732 17.9613 17.0732C17.9613 17.0732 17.9613 17.0733 17.9612 17.0733C17.9612 17.0734 17.9612 17.0735 17.9611 17.0735C17.9611 17.0736 17.961 17.0737 16.255 16.0299C14.549 14.9861 14.5489 14.9863 14.5488 14.9864C14.5488 14.9865 14.5487 14.9866 14.5486 14.9867C14.5485 14.987 14.5483 14.9872 14.5481 14.9876C14.5477 14.9882 14.5472 14.989 14.5466 14.99C14.5455 14.9919 14.5439 14.9944 14.542 14.9976C14.5381 15.0039 14.5328 15.0128 14.526 15.0239C14.5125 15.0462 14.4934 15.0779 14.4694 15.118C14.4216 15.1979 14.3542 15.3115 14.2739 15.4498C14.114 15.7249 13.8984 16.1052 13.6804 16.518C13.4658 16.9245 13.2323 17.3938 13.0473 17.84C12.9038 18.1864 12.6431 18.8467 12.6431 19.501H14.6431ZM16.255 16.0299L17.9855 17.0326C18.2483 16.5789 18.441 16.0491 18.5684 15.5797C18.6957 15.1111 18.799 14.5508 18.799 14.0166H16.799H14.799C14.799 14.0814 14.7787 14.2717 14.7081 14.5319C14.6377 14.7914 14.5583 14.9688 14.5245 15.0273L16.255 16.0299ZM16.799 14.0166H18.799V9.61157H16.799H14.799V14.0166H16.799ZM16.799 9.61157L18.7986 9.57194C18.7572 7.48262 17.0323 5.8459 14.9675 5.8459V7.8459V9.8459C14.9047 9.8459 14.8022 9.78996 14.7994 9.65119L16.799 9.61157ZM14.9675 7.8459V5.8459C13.4115 5.8459 12.0612 7.08784 12.0612 8.729H14.0612H16.0612C16.0612 9.39435 15.522 9.8459 14.9675 9.8459V7.8459ZM14.0612 8.729H12.0612V9.08181H14.0612H16.0612V8.729H14.0612ZM14.0612 9.08181H16.0612C16.0612 6.95328 14.3052 5.31614 12.249 5.31614V7.31614V9.31614C12.2147 9.31614 12.1706 9.30069 12.1347 9.26572C12.0979 9.22984 12.0612 9.16309 12.0612 9.08181H14.0612ZM12.249 7.31614V5.31614C10.693 5.31614 9.34267 6.55809 9.34267 8.19924H11.3427H13.3427C13.3427 8.86459 12.8035 9.31614 12.249 9.31614V7.31614ZM11.3427 8.19924H9.34267V8.55206H11.3427H13.3427V8.19924H11.3427ZM11.3427 8.55206H13.3427C13.3427 6.42353 11.5867 4.78639 9.53051 4.78639V6.78639V8.78639C9.49623 8.78639 9.45212 8.77094 9.41623 8.73596C9.37941 8.70009 9.34267 8.63333 9.34267 8.55206H11.3427ZM9.53051 6.78639V4.78639C7.9745 4.78639 6.62415 6.02833 6.62415 7.66949H8.62415H10.6242C10.6242 8.33484 10.085 8.78639 9.53051 8.78639V6.78639ZM8.62415 7.66949H6.62415V8.0223H8.62415H10.6242V7.66949H8.62415ZM8.62415 8.0223H10.6242C10.6242 7.74107 10.5966 7.39341 10.4805 7.03138L8.57609 7.64223L6.67166 8.25308C6.64384 8.16634 6.6327 8.09983 6.62811 8.0639C6.62351 8.02787 6.62415 8.01196 6.62415 8.0223H8.62415ZM8.57609 7.64223L10.5724 7.52091L10.296 2.97177L8.29963 3.09309L6.30332 3.21441L6.57977 7.76355L8.57609 7.64223ZM8.29963 3.09309L10.296 2.97177C10.1963 1.33134 8.84239 0 7.1649 0V2V4C6.66743 4 6.32824 3.62452 6.30332 3.21441L8.29963 3.09309ZM7.1649 2V0C5.42087 0 4.09658 1.43001 4.09658 3.09155H6.09658H8.09658C8.09658 3.5474 7.72067 4 7.1649 4V2ZM6.09658 3.09155H4.09658V7.45882H6.09658H8.09658V3.09155H6.09658ZM6.09658 7.45882H4.09658V12.9176H6.09658H8.09658V7.45882H6.09658ZM13.595 11.8259V13.8259H14.6633V11.8259L14.6633 9.82588H13.595V11.8259ZM14.6633 11.8259H12.6633V16.1929H14.6633H16.6633V11.8259H14.6633ZM14.6633 16.1929V14.1929H13.595V16.1929V18.1929H14.6633V16.1929ZM13.595 16.1929H15.595V11.8259H13.595H11.595V16.1929H13.595ZM13.595 11.8259M11.4604 11.8259V13.8259H12.5288V11.8259L12.5288 9.82588H11.4604V11.8259ZM12.5288 11.8259H10.5288V16.1929H12.5288H14.5288V11.8259H12.5288ZM12.5288 16.1929V14.1929H11.4604V16.1929V18.1929H12.5288V16.1929ZM11.4604 16.1929H13.4604V11.8259H11.4604H9.46045V16.1929H11.4604ZM11.4604 11.8259M9.32275 11.8259V13.8259H10.3911V11.8259L10.3911 9.82588H9.32275V11.8259ZM10.3911 11.8259H8.39107V16.1929H10.3911H12.3911V11.8259H10.3911ZM10.3911 16.1929V14.1929H9.32275V16.1929V18.1929H10.3911V16.1929ZM9.32275 16.1929H11.3228V11.8259H9.32275H7.32275V16.1929H9.32275ZM9.32275 11.8259" fill="#222222" mask="url(#path-1-outside-1_68_43)"/>
</svg>
